<?xml version="1.0"?><svg xmlns="http://www.w3.org/2000/svg"  viewBox="0 0 30 30" width="500px" height="500px">    <path d="M25.983,13.342C25.988,13.228,26,13.116,26,13c0-4.418-3.582-8-8-8c-3.11,0-5.8,1.779-7.123,4.371 C10.296,9.136,9.665,9,9,9c-2.53,0-4.599,1.885-4.932,4.324C1.703,14.129,0,16.363,0,19c0,3.314,2.686,6,6,6h18 c3.314,0,6-2.686,6-6C30,16.382,28.321,14.162,25.983,13.342z M11.293,15.293l3-3C14.488,12.098,14.744,12,15,12 s0.512,0.098,0.707,0.293l3,3c0.391,0.391,0.391,1.023,0,1.414c-0.391,0.391-1.023,0.391-1.414,0L16,15.414V21c0,0.552-0.447,1-1,1 s-1-0.448-1-1v-5.586l-1.293,1.293c-0.391,0.391-1.023,0.391-1.414,0S10.902,15.684,11.293,15.293z"/></svg>