<svg xmlns="http://www.w3.org/2000/svg"  viewBox="0 0 30 30" width="50px" height="50px"><path d="M 24 3 C 22.343 3 21 4.343 21 6 C 21 6.5245274 21.146301 7.0104949 21.382812 7.4394531 L 15.550781 14 L 8.8164062 14 C 8.4033157 12.837162 7.3046254 12 6 12 C 4.343 12 3 13.343 3 15 C 3 16.657 4.343 18 6 18 C 7.3046254 18 8.4033157 17.162838 8.8164062 16 L 15.550781 16 L 21.382812 22.560547 C 21.146301 22.989505 21 23.475473 21 24 C 21 25.657 22.343 27 24 27 C 25.657 27 27 25.657 27 24 C 27 22.343 25.657 21 24 21 C 23.600082 21 23.219964 21.082616 22.871094 21.224609 L 17.337891 15 L 22.871094 8.7753906 C 23.219964 8.9173837 23.600082 9 24 9 C 25.657 9 27 7.657 27 6 C 27 4.343 25.657 3 24 3 z"/></svg>