<svg xmlns="http://www.w3.org/2000/svg"  viewBox="0 0 30 30" width="100px" height="100px"><path d="M 1.7070312 0.29296875 L 0.29296875 1.7070312 L 28.292969 29.707031 L 29.707031 28.292969 L 24.144531 22.730469 C 25.591757 21.024571 26.582568 18.910434 26.888672 16.560547 C 26.959672 16.012547 26.573391 15.512406 26.025391 15.441406 C 25.471391 15.365406 24.97725 15.754734 24.90625 16.302734 C 24.658352 18.201573 23.874224 19.914762 22.726562 21.3125 L 8.6894531 7.2753906 C 10.421575 5.855202 12.622477 5 15 5 C 17.682948 5 20.192301 6.0607603 22.060547 7.9394531 L 20 10 L 26 11 L 25 5 L 23.474609 6.5253906 C 21.232639 4.2718849 18.221818 3 15 3 C 12.076425 3 9.3799743 4.083015 7.2792969 5.8652344 L 1.7070312 0.29296875 z M 4.6972656 8.890625 C 3.8872656 10.252625 3.3263281 11.787453 3.1113281 13.439453 C 3.0403281 13.987453 3.4266094 14.487594 3.9746094 14.558594 C 4.0186094 14.564594 4.0605156 14.568359 4.1035156 14.568359 C 4.5985156 14.568359 5.02875 14.201266 5.09375 13.697266 C 5.24975 12.499266 5.6212031 11.373516 6.1582031 10.353516 L 4.6972656 8.890625 z M 3 19 L 4 25 L 6.0507812 22.949219 C 8.3324311 25.523959 11.540289 27 15 27 C 17.219 27 19.314234 26.382594 21.115234 25.308594 L 19.644531 23.837891 C 18.248531 24.576891 16.668 25 15 25 C 12.079193 25 9.3722946 23.735338 7.4667969 21.533203 L 9 20 L 3 19 z"/></svg>